<svg width="64" height="64" viewBox="0 0 64 64" fill="none" xmlns="http://www.w3.org/2000/svg">
<path d="M0 0V21.6594H5.10046C5.79913 16.6288 9.05621 11.8884 14.8123 10.4105C19.9825 9.08297 27.9476 9.08297 32 9.08297C36.0524 9.08297 44.0175 9.08297 49.1878 10.4105C54.9438 11.8884 58.2009 16.6288 58.8996 21.6594H64V0H0Z" fill="#140000"/>
<path d="M64 64V42.3406H58.8996C58.2009 47.3712 54.9438 52.1116 49.1878 53.5895C44.0175 54.917 36.0524 54.917 32 54.917C27.9476 54.917 19.9825 54.917 14.8123 53.5895C9.05621 52.1116 5.79913 47.3712 5.10046 42.3406H0V64L64 64Z" fill="#140000"/>
<path d="M48.0699 42.8996V21.1004H45.5085C45.1577 23.632 43.522 26.0175 40.6314 26.7612C38.035 27.4292 34.035 27.4292 32 27.4292C29.965 27.4292 25.965 27.4292 23.3686 26.7612C20.478 26.0175 18.8423 23.632 18.4915 21.1004H15.9301L15.9302 42.8996H18.4915C18.8423 40.3681 20.478 37.9825 23.3686 37.2388C25.965 36.5708 29.965 36.5708 32 36.5708C34.0351 36.5708 38.035 36.5708 40.6314 37.2388C43.522 37.9825 45.1577 40.3681 45.5085 42.8996H48.0699Z" fill="#140000"/>
</svg>
